<?xml version="1.0" encoding="utf-8"?>
<!-- Generator: Adobe Illustrator 22.1.0, SVG Export Plug-In . SVG Version: 6.00 Build 0)  -->
<svg version="1.1" id="Layer_1" xmlns="http://www.w3.org/2000/svg" xmlns:xlink="http://www.w3.org/1999/xlink" x="0px" y="0px"
	 viewBox="0 0 36 36" style="enable-background:new 0 0 36 36;" xml:space="preserve">
<style type="text/css">
	.st0{fill:#FFFFFF;}
	.st1{fill:#F36E24;}
</style>
<rect x="1.9" y="1.9" class="st0" width="32.1" height="32.1"/>
<path class="st1" d="M23.4,14.4c-1.8-1.3-3.5-1.2-3.5-1.2l-0.2,0.1c2.1,0.6,3,1.5,3,1.5c-1.2-0.8-2.5-1-3.6-1.2
	c-0.9-0.2-1.6,0-2.4,0h-0.2c-0.5,0-1.5,0.2-2.7,0.8l-0.7,0.4c0,0,1-0.9,3.1-1.5l-0.1-0.2c0,0-1.7,0-3.5,1.2c0,0-1.8,3.1-1.8,7
	c0,0,1,1.8,3.6,1.8l0.8-1c-1.5-0.5-2.1-1.4-2.1-1.4l0.6,0.2l0,0l0,0l0,0l0,0c0.3,0.2,0.6,0.3,0.9,0.5c0.4,0.1,1,0.5,1.8,0.5
	c0.9,0.1,2,0.3,3.2,0c0.6-0.2,1.2-0.3,1.8-0.5c0.5-0.2,0.9-0.5,1.3-0.8c0,0-0.6,1-2.3,1.5l0.8,1c2.7-0.2,3.6-1.8,3.6-1.8
	C25.1,17.5,23.4,14.4,23.4,14.4z M15.8,20.3c-0.8,0-1.2-0.6-1.2-1.3s0.6-1.4,1.2-1.4c0.8,0,1.2,0.6,1.2,1.4
	C17.1,19.7,16.5,20.3,15.8,20.3z M20.3,20.3c-0.6,0-1.2-0.6-1.2-1.3s0.6-1.4,1.2-1.4c0.8,0,1.2,0.6,1.2,1.4S20.8,20.3,20.3,20.3z
	 M23.4,14.4c-1.8-1.3-3.5-1.2-3.5-1.2l-0.2,0.1c2.1,0.6,3,1.5,3,1.5c-1.2-0.8-2.5-1-3.6-1.2c-0.9-0.2-1.6,0-2.4,0h-0.2
	c-0.5,0-1.5,0.2-2.7,0.8l-0.7,0.4c0,0,1-0.9,3.1-1.5l-0.1-0.2c0,0-1.7,0-3.5,1.2c0,0-1.8,3.1-1.8,7c0,0,1,1.8,3.6,1.8l0.8-1
	c-1.5-0.5-2.1-1.4-2.1-1.4l0.6,0.2l0,0l0,0l0,0l0,0c0.3,0.2,0.6,0.3,0.9,0.5c0.4,0.1,1,0.5,1.8,0.5c0.9,0.1,2,0.3,3.2,0
	c0.6-0.2,1.2-0.3,1.8-0.5c0.5-0.2,0.9-0.5,1.3-0.8c0,0-0.6,1-2.3,1.5l0.8,1c2.7-0.2,3.6-1.8,3.6-1.8C25.1,17.5,23.4,14.4,23.4,14.4z
	 M15.8,20.3c-0.8,0-1.2-0.6-1.2-1.3s0.6-1.4,1.2-1.4c0.8,0,1.2,0.6,1.2,1.4C17.1,19.7,16.5,20.3,15.8,20.3z M20.3,20.3
	c-0.6,0-1.2-0.6-1.2-1.3s0.6-1.4,1.2-1.4c0.8,0,1.2,0.6,1.2,1.4S20.8,20.3,20.3,20.3z M0,0v36h36V0H0z M28.5,31.5l-2.6-2.3l-1.5-1.3
	l-1.5-1.5l0.6,2.3H9.9c-1.4,0-2.4-1.1-2.4-2.4V10c0-1.5,1-2.5,2.4-2.5h16c1.5,0,2.6,1,2.6,2.5V31.5z M20,13l-0.2,0.2
	c2.1,0.6,3,1.5,3,1.5c-1.2-0.8-2.5-1.1-3.6-1.2c-0.9-0.2-1.6,0-2.4,0h-0.2c-0.5,0-1.5,0.2-2.7,0.8l-0.7,0.6c0,0,1-0.9,3.1-1.5
	l-0.1-0.2c0,0-1.7,0-3.5,1.2c0,0-1.8,3.1-1.8,7c0,0,1,1.8,3.6,1.8l0.8-1c-1.5-0.5-2.1-1.4-2.1-1.4l0.6,0.2l0,0l0,0l0,0l0,0
	c0.3,0.2,0.6,0.3,0.9,0.5c0.4,0.1,1,0.5,1.8,0.5c0.9,0.1,2,0.3,3.2,0c0.6-0.2,1.2-0.3,1.8-0.5c0.5-0.2,0.9-0.5,1.3-0.8
	c0,0-0.6,1-2.3,1.5l0.8,1c2.7-0.2,3.6-1.8,3.6-1.8c0-3.9-1.7-7.1-1.7-7.1C21.6,13,20,13,20,13z M15.8,20.3c-0.8,0-1.2-0.6-1.2-1.3
	s0.6-1.4,1.2-1.4c0.8,0,1.2,0.6,1.2,1.4C17.1,19.7,16.5,20.3,15.8,20.3z M20.3,20.3c-0.6,0-1.2-0.6-1.2-1.3s0.6-1.4,1.2-1.4
	c0.8,0,1.2,0.6,1.2,1.4S20.8,20.3,20.3,20.3z M23.4,14.4c-1.8-1.3-3.5-1.2-3.5-1.2l-0.2,0.1c2.1,0.6,3,1.5,3,1.5
	c-1.2-0.8-2.5-1-3.6-1.2c-0.9-0.2-1.6,0-2.4,0h-0.2c-0.5,0-1.5,0.2-2.7,0.8l-0.7,0.4c0,0,1-0.9,3.1-1.5l-0.1-0.2c0,0-1.7,0-3.5,1.2
	c0,0-1.8,3.1-1.8,7c0,0,1,1.8,3.6,1.8l0.8-1c-1.5-0.5-2.1-1.4-2.1-1.4l0.6,0.2l0,0l0,0l0,0l0,0c0.3,0.2,0.6,0.3,0.9,0.5
	c0.4,0.1,1,0.5,1.8,0.5c0.9,0.1,2,0.3,3.2,0c0.6-0.2,1.2-0.3,1.8-0.5c0.5-0.2,0.9-0.5,1.3-0.8c0,0-0.6,1-2.3,1.5l0.8,1
	c2.7-0.2,3.6-1.8,3.6-1.8C25.1,17.5,23.4,14.4,23.4,14.4z M15.8,20.3c-0.8,0-1.2-0.6-1.2-1.3s0.6-1.4,1.2-1.4c0.8,0,1.2,0.6,1.2,1.4
	C17.1,19.7,16.5,20.3,15.8,20.3z M20.3,20.3c-0.6,0-1.2-0.6-1.2-1.3s0.6-1.4,1.2-1.4c0.8,0,1.2,0.6,1.2,1.4S20.8,20.3,20.3,20.3z
	 M23.4,14.4c-1.8-1.3-3.5-1.2-3.5-1.2l-0.2,0.1c2.1,0.6,3,1.5,3,1.5c-1.2-0.8-2.5-1-3.6-1.2c-0.9-0.2-1.6,0-2.4,0h-0.2
	c-0.5,0-1.5,0.2-2.7,0.8l-0.7,0.4c0,0,1-0.9,3.1-1.5l-0.1-0.2c0,0-1.7,0-3.5,1.2c0,0-1.8,3.1-1.8,7c0,0,1,1.8,3.6,1.8l0.8-1
	c-1.5-0.5-2.1-1.4-2.1-1.4l0.6,0.2l0,0l0,0l0,0l0,0c0.3,0.2,0.6,0.3,0.9,0.5c0.4,0.1,1,0.5,1.8,0.5c0.9,0.1,2,0.3,3.2,0
	c0.6-0.2,1.2-0.3,1.8-0.5c0.5-0.2,0.9-0.5,1.3-0.8c0,0-0.6,1-2.3,1.5l0.8,1c2.7-0.2,3.6-1.8,3.6-1.8C25.1,17.5,23.4,14.4,23.4,14.4z
	 M15.8,20.3c-0.8,0-1.2-0.6-1.2-1.3s0.6-1.4,1.2-1.4c0.8,0,1.2,0.6,1.2,1.4C17.1,19.7,16.5,20.3,15.8,20.3z M20.3,20.3
	c-0.6,0-1.2-0.6-1.2-1.3s0.6-1.4,1.2-1.4c0.8,0,1.2,0.6,1.2,1.4S20.8,20.3,20.3,20.3z"/>
<path class="st0" d="M21.5,18.9c0,0.8-0.6,1.3-1.2,1.3c-0.6,0-1.2-0.6-1.2-1.3s0.6-1.4,1.2-1.4C20.8,17.5,21.5,18.2,21.5,18.9z"/>
<path class="st0" d="M17.1,18.9c0,0.8-0.6,1.3-1.2,1.3c-0.8,0-1.2-0.6-1.2-1.3s0.6-1.4,1.2-1.4C16.5,17.5,17.1,18.2,17.1,18.9z"/>
</svg>
