<?xml version="1.0" encoding="utf-8"?>
<!-- Generator: Adobe Illustrator 22.1.0, SVG Export Plug-In . SVG Version: 6.00 Build 0)  -->
<svg version="1.1" id="Layer_1" xmlns="http://www.w3.org/2000/svg" xmlns:xlink="http://www.w3.org/1999/xlink" x="0px" y="0px"
	 viewBox="0 0 36 36" style="enable-background:new 0 0 36 36;" xml:space="preserve">
<style type="text/css">
	.st0{fill:#FFFFFF;}
	.st1{fill:#F36E24;}
</style>
<rect x="1.9" y="1.9" class="st0" width="32.1" height="32.1"/>
<path class="st1" d="M22,18c0,2.3-1.8,4-4,4s-4-1.8-4-4s1.8-4,4-4S22,15.8,22,18z M27.8,13.2c0,1.2,0,1.6,0,4.8s0,3.6,0,4.8
	c-0.2,3.1-1.7,4.8-5,5c-1.2,0-1.6,0-4.8,0s-3.6,0-4.8,0c-3.3-0.2-4.8-1.7-5-5c0-1.2,0-1.6,0-4.8s0-3.6,0-4.8c0.1-3.3,1.6-4.8,5-5
	c1.2,0,1.6,0,4.8,0s3.6,0,4.8,0C26.1,8.4,27.6,9.9,27.8,13.2z M24.2,18c0-3.5-2.7-6.1-6.2-6.1s-6.1,2.7-6.1,6.1s2.7,6.2,6.1,6.2
	S24.2,21.5,24.2,18z M25.8,11.5c0-0.8-0.6-1.5-1.5-1.5s-1.5,0.6-1.5,1.5s0.6,1.5,1.5,1.5C25.2,13,25.8,12.5,25.8,11.5z M36,0v36H0V0
	H36z M30,18c0-3.3,0-3.6,0-5c-0.2-4.3-2.6-6.7-7-7c-1.4,0-1.7,0-5,0s-3.6,0-5,0c-4.3,0.3-6.7,2.7-7,7c0,1.4,0,1.7,0,5s0,3.6,0,5
	c0.1,4.4,2.5,6.7,7,7c1.4,0,1.7,0,5,0s3.6,0,5,0c4.4-0.2,6.7-2.6,7-7C30,21.6,30,21.3,30,18z"/>
</svg>
