<?xml version="1.0" encoding="utf-8"?>
<!-- Generator: Adobe Illustrator 22.1.0, SVG Export Plug-In . SVG Version: 6.00 Build 0)  -->
<svg version="1.1" id="Layer_1" xmlns="http://www.w3.org/2000/svg" xmlns:xlink="http://www.w3.org/1999/xlink" x="0px" y="0px"
	 viewBox="0 0 36 36" style="enable-background:new 0 0 36 36;" xml:space="preserve">
<style type="text/css">
	.st0{fill:#FFFFFF;}
	.st1{fill:#F36E24;}
</style>
<rect x="1.9" y="1.9" class="st0" width="32.1" height="32.1"/>
<path class="st1" d="M0,0v36h36V0H0z M28.3,13.8c0.3,6.9-4.8,14.7-13.9,14.7c-2.9,0-5.4-0.8-7.5-2.3c2.5,0.3,5.3-0.4,7.4-2.1
	c-2.1,0-3.9-1.5-4.6-3.5c0.8,0.1,1.5,0.1,2.3-0.2C9.5,20.1,7.8,18,8,15.6c0.4,0.6,1.2,0.9,1.9,0.9C7.6,15,7,12.2,8.4,9.9
	c2.4,3,6,4.9,10.2,5.1c-0.8-3.1,1.7-6,4.8-6c1.4,0,2.7,0.6,3.6,1.5c1.1-0.1,2.3-0.6,3.2-1.2c-0.3,1.2-1.2,2.1-2.1,2.7
	c1.1-0.1,1.9-0.5,2.9-0.8C30.2,12.3,29.3,13.2,28.3,13.8z"/>
</svg>
