<?xml version="1.0" encoding="utf-8"?>
<!-- Generator: Adobe Illustrator 22.1.0, SVG Export Plug-In . SVG Version: 6.00 Build 0)  -->
<svg version="1.1" id="Layer_1" xmlns="http://www.w3.org/2000/svg" xmlns:xlink="http://www.w3.org/1999/xlink" x="0px" y="0px"
	 viewBox="0 0 36 36" style="enable-background:new 0 0 36 36;" xml:space="preserve">
<style type="text/css">
	.st0{fill:#FFFFFF;}
	.st1{fill:#F36E24;}
</style>
<path class="st0" d="M10,9.6v15h5c0,0.2,0,3.2,0,3.2l3-3h5.7l3.6-3.6V9.6H10z M18,20.1h-2.1v-6.3H18V20.1z M23.7,20.1h-2.1v-6.3h2.1
	V20.1z"/>
<path class="st0" d="M1.9,1.9V34H34V1.9H1.9z M29.4,22.2l-6.2,6.3h-4.7l-3,3h-3.3v-3H6.6v-17l1.5-4h21.3V22.2z"/>
<rect class="st1" width="36" height="36"/>
<g>
	<path class="st0" d="M8.1,6l-1.5,4v17h5.6v3h3.3l3-3h4.7l6.2-6.3V6H8.1z M27.3,19.7l-3.6,3.6H18l-3,3c0,0,0-3,0-3.2h-5v-15h17.3
		V19.7z"/>
	<rect x="21.6" y="12.3" class="st0" width="2.1" height="6.3"/>
	<rect x="15.9" y="12.3" class="st0" width="2.1" height="6.3"/>
</g>
</svg>
